<svg xmlns="http://www.w3.org/2000/svg" width="32" height="23" viewBox="0 0 32 23">
  <defs>
    <style>
      .cls-1 {
        fill: #ff7043;
      }
    </style>
  </defs>
  <path id="Path_3" data-name="Path 3" class="cls-1" d="M251.524,368.92h3.048c1.524,0,1.525,3.067,3.048,3.067h23.619c.762,0,.762,0,.762.767s-1.412,12.267-1.412,12.267a.9.9,0,0,1-.874.767h-16a1.533,1.533,0,0,0,0,3.067h13.714c1.524,0,1.524,0,1.524,1.533s0,1.533-1.524,1.533H259.143c-1.524,0-1.524,0-1.524-1.533s-.009-12.353,0-13.8-1.524-4.6-3.048-4.6h-3.048c-.765,0-1.524,0-1.524-1.533S250,368.92,251.524,368.92Z" transform="translate(-250 -368.92)"/>
</svg>
